<svg width="44" height="44" viewBox="0 0 44 44" fill="none" xmlns="http://www.w3.org/2000/svg">
<circle cx="22" cy="22" r="22" fill="#303030"/>
<g clip-path="url(#clip0_108_634)">
<path d="M14.8133 30.0003C14.7208 29.9613 14.6282 29.9321 14.5405 29.8833C13.9609 29.5714 13.8197 28.8014 14.2483 28.3043C14.297 28.2507 14.3506 28.1971 14.3993 28.1483C16.3962 26.1453 18.3981 24.1471 20.3999 22.1441C20.4389 22.1051 20.4876 22.071 20.5411 22.0222C20.4876 21.9637 20.4437 21.9199 20.4048 21.876C18.3883 19.8584 16.367 17.8358 14.3506 15.8181C13.883 15.3503 13.883 14.6826 14.3457 14.2683C14.7354 13.9174 15.315 13.9126 15.7144 14.2537C15.7777 14.3073 15.8361 14.3707 15.8946 14.4292C17.8867 16.4225 19.8787 18.4158 21.8708 20.4091C21.9098 20.4481 21.9536 20.487 22.0023 20.5309C22.051 20.4822 22.0997 20.4432 22.1387 20.3993C24.1551 18.3817 26.1716 16.3591 28.1929 14.3414C28.7579 13.7761 29.6492 13.9418 29.9268 14.6582C29.9512 14.7265 29.9755 14.7947 29.9999 14.8629C29.9999 14.9799 29.9999 15.092 29.9999 15.2089C29.922 15.5257 29.7174 15.7548 29.4934 15.979C27.5256 17.943 25.5628 19.912 23.595 21.876C23.5512 21.9199 23.4927 21.9394 23.4246 21.9832C23.5171 22.0661 23.5609 22.1002 23.5999 22.1441C25.5676 24.113 27.5354 26.0868 29.508 28.0557C29.7271 28.275 29.9268 28.5041 29.9999 28.816C29.9999 28.933 29.9999 29.0451 29.9999 29.162C29.883 29.5909 29.6151 29.8785 29.1865 30.0052C29.0306 30.0052 28.8748 30.0052 28.7189 30.0052C28.4169 29.9028 28.2026 29.6884 27.9835 29.4739C26.0352 27.5196 24.0821 25.5702 22.1338 23.6159C22.09 23.572 22.0462 23.533 21.978 23.4697C21.9293 23.533 21.8952 23.5867 21.8513 23.6305C19.8982 25.58 17.9354 27.5391 15.9822 29.4983C15.7777 29.7079 15.5634 29.9028 15.2809 29.9954C15.125 30.0003 14.9692 30.0003 14.8133 30.0003Z" fill="white"/>
</g>
<defs>
<clipPath id="clip0_108_634">
<rect width="16" height="16" fill="white" transform="translate(14 14)"/>
</clipPath>
</defs>
</svg>
