<svg width="18" height="20" viewBox="0 0 18 20" fill="none" xmlns="http://www.w3.org/2000/svg">
<path d="M14.17 0C14.4185 0.0587535 14.6718 0.0979224 14.9109 0.181157C17.5043 1.08694 18.2687 4.38693 16.3366 6.42371C13.6353 9.26836 10.9154 12.0983 8.19539 14.9234C7.50132 15.6431 6.66657 15.8683 5.73334 15.555C4.80948 15.2416 4.26079 14.5464 4.11073 13.5476C3.99818 12.8034 4.19514 12.1277 4.6641 11.55C4.72038 11.4814 4.78134 11.4129 4.84231 11.3492C6.11319 10.0224 7.38408 8.69551 8.65497 7.36866C8.88007 7.13365 9.13331 6.99656 9.46158 7.0651C10.0431 7.18751 10.2963 7.91213 9.92117 8.39685C9.86489 8.46539 9.80393 8.53394 9.74296 8.59759C8.49083 9.90486 7.23401 11.2121 5.98189 12.5243C5.63016 12.8915 5.58327 13.3419 5.85058 13.6993C6.12726 14.0666 6.61498 14.1253 6.96671 13.8364C7.0136 13.7973 7.0605 13.7532 7.10739 13.7042C9.79455 10.8988 12.4817 8.09329 15.1689 5.28781C15.9895 4.43099 16.0317 3.18248 15.272 2.32076C14.5592 1.5129 13.3024 1.44925 12.5145 2.17388C12.4395 2.24242 12.3692 2.31587 12.2988 2.38931C9.06766 5.77742 5.8412 9.17533 2.60067 12.5537C1.47516 13.7287 1.31102 15.3738 1.99102 16.6223C3.07432 18.6053 5.54575 18.9284 7.10739 17.2882C9.91179 14.3505 12.7162 11.4031 15.5159 8.4605C15.8817 8.0786 16.2428 7.68691 16.6133 7.30991C16.9884 6.92801 17.5043 6.9476 17.8185 7.34418C18.0483 7.63305 18.0623 8.05902 17.8466 8.35768C17.795 8.43112 17.7341 8.49477 17.6731 8.56332C14.5311 11.8633 11.389 15.1633 8.24697 18.4584C7.13553 19.6237 5.7943 20.1426 4.22328 19.9664C2.09419 19.7363 0.330892 17.9443 0.0495147 15.7214C-0.161518 14.0617 0.302754 12.6271 1.42826 11.4422C4.69224 8.01006 7.96091 4.58767 11.2249 1.16038C11.8205 0.533677 12.5286 0.141988 13.3727 0.0342729C13.4009 0.0293767 13.429 0.00979224 13.4571 0C13.6963 0 13.9355 0 14.17 0Z" fill="#858585"/>
</svg>
