<svg width="21" height="27" viewBox="0 0 21 27" fill="none" xmlns="http://www.w3.org/2000/svg">
<path d="M9.81932 27.0001C9.35057 26.8311 8.85613 26.7183 8.4259 26.4717C7.41776 25.901 6.80132 24.964 6.51236 23.7662C6.50594 23.731 6.50593 23.6958 6.49951 23.6394C8.99739 23.6394 11.4889 23.6394 14.006 23.6394C13.9225 24.1467 13.7427 24.6117 13.4859 25.0415C12.8438 26.1124 11.9512 26.7536 10.7889 26.9508C10.7504 26.9579 10.7183 26.979 10.6798 26.9931C10.3972 27.0002 10.1083 27.0001 9.81932 27.0001Z" fill="#564C4C"/>
<path d="M10.2559 22.5037C7.47551 22.5037 4.6951 22.5037 1.91468 22.5037C0.957909 22.5037 0.238718 21.9189 0.0460795 20.9536C-0.108031 20.1645 0.129558 19.5023 0.681789 18.9738C1.26613 18.4243 1.74772 17.7831 2.133 17.0574C2.77513 15.8526 3.07051 14.5492 3.07693 13.1612C3.07693 12.0692 3.06409 10.9841 3.08335 9.89207C3.14757 6.21428 5.68397 2.99445 8.99736 2.38148C9.18358 2.34626 9.24137 2.28285 9.22853 2.08557C9.21568 1.75443 9.21568 1.41624 9.22853 1.0851C9.24779 0.479177 9.69086 0.00712342 10.2367 7.78409e-05C10.7953 -0.00696774 11.2448 0.465086 11.2641 1.0851C11.2769 1.43738 11.2705 1.78966 11.2641 2.14193C11.2577 2.29694 11.309 2.3533 11.4503 2.37444C14.5389 2.98036 16.8634 5.57313 17.345 8.97615C17.4028 9.40593 17.4093 9.8498 17.4157 10.2866C17.4349 11.4703 17.39 12.661 17.4606 13.8446C17.5762 15.8597 18.366 17.5365 19.7273 18.8822C20.1255 19.2768 20.4401 19.7136 20.4851 20.3266C20.575 21.5525 19.7787 22.4896 18.6293 22.4966C17.5505 22.5037 16.4653 22.4966 15.3865 22.4966C13.6785 22.5037 11.9704 22.5037 10.2559 22.5037Z" fill="#564C4C"/>
</svg>
