<svg width="180" height="46" viewBox="0 0 180 46" fill="none" xmlns="http://www.w3.org/2000/svg">
<rect width="180" height="46" rx="8" fill="white"/>
<path d="M46.216 17.576H54.44V19.304H48.216V22.296H53.976V23.928H48.216V27.272H54.552V29H46.216V17.576ZM63.8301 29H62.1021V27.88H62.0701C61.8248 28.36 61.4675 28.7067 60.9981 28.92C60.5288 29.1227 60.0328 29.224 59.5101 29.224C58.8595 29.224 58.2888 29.112 57.7981 28.888C57.3181 28.6533 56.9181 28.3387 56.5981 27.944C56.2781 27.5493 56.0381 27.0853 55.8781 26.552C55.7181 26.008 55.6381 25.4267 55.6381 24.808C55.6381 24.0613 55.7395 23.416 55.9421 22.872C56.1448 22.328 56.4115 21.88 56.7421 21.528C57.0835 21.176 57.4675 20.92 57.8941 20.76C58.3315 20.5893 58.7741 20.504 59.2221 20.504C59.4781 20.504 59.7395 20.5307 60.0061 20.584C60.2728 20.6267 60.5288 20.7013 60.7741 20.808C61.0195 20.9147 61.2435 21.0533 61.4461 21.224C61.6595 21.384 61.8355 21.576 61.9741 21.8H62.0061V17.576H63.8301V29ZM57.4621 24.952C57.4621 25.304 57.5048 25.6507 57.5901 25.992C57.6861 26.3333 57.8248 26.6373 58.0061 26.904C58.1981 27.1707 58.4381 27.384 58.7261 27.544C59.0141 27.704 59.3555 27.784 59.7501 27.784C60.1555 27.784 60.5021 27.6987 60.7901 27.528C61.0888 27.3573 61.3288 27.1333 61.5101 26.856C61.7021 26.5787 61.8408 26.2693 61.9261 25.928C62.0221 25.576 62.0701 25.2187 62.0701 24.856C62.0701 23.9387 61.8621 23.224 61.4461 22.712C61.0408 22.2 60.4861 21.944 59.7821 21.944C59.3555 21.944 58.9928 22.0347 58.6941 22.216C58.4061 22.3867 58.1661 22.616 57.9741 22.904C57.7928 23.1813 57.6595 23.5013 57.5741 23.864C57.4995 24.216 57.4621 24.5787 57.4621 24.952ZM65.8674 17.576H67.6914V19.304H65.8674V17.576ZM65.8674 20.728H67.6914V29H65.8674V20.728ZM68.8468 20.728H70.2228V18.248H72.0468V20.728H73.6948V22.088H72.0468V26.504C72.0468 26.696 72.0521 26.8613 72.0628 27C72.0841 27.1387 72.1214 27.256 72.1748 27.352C72.2388 27.448 72.3294 27.5227 72.4468 27.576C72.5641 27.6187 72.7241 27.64 72.9268 27.64C73.0548 27.64 73.1828 27.64 73.3108 27.64C73.4388 27.6293 73.5668 27.608 73.6948 27.576V28.984C73.4921 29.0053 73.2948 29.0267 73.1028 29.048C72.9108 29.0693 72.7134 29.08 72.5108 29.08C72.0308 29.08 71.6414 29.0373 71.3428 28.952C71.0548 28.856 70.8254 28.7227 70.6548 28.552C70.4948 28.3707 70.3828 28.1467 70.3188 27.88C70.2654 27.6133 70.2334 27.3093 70.2228 26.968V22.088H68.8468V20.728ZM85.044 23.496C84.9693 22.984 84.7613 22.6 84.42 22.344C84.0893 22.0773 83.668 21.944 83.156 21.944C82.9213 21.944 82.6707 21.9867 82.404 22.072C82.1373 22.1467 81.892 22.296 81.668 22.52C81.444 22.7333 81.2573 23.0373 81.108 23.432C80.9587 23.816 80.884 24.3227 80.884 24.952C80.884 25.2933 80.9213 25.6347 80.996 25.976C81.0813 26.3173 81.2093 26.6213 81.38 26.888C81.5613 27.1547 81.7907 27.3733 82.068 27.544C82.3453 27.704 82.6813 27.784 83.076 27.784C83.6093 27.784 84.0467 27.6187 84.388 27.288C84.74 26.9573 84.9587 26.4933 85.044 25.896H86.868C86.6973 26.9733 86.2867 27.8 85.636 28.376C84.996 28.9413 84.1427 29.224 83.076 29.224C82.4253 29.224 81.8493 29.1173 81.348 28.904C80.8573 28.68 80.4413 28.3813 80.1 28.008C79.7587 27.624 79.4973 27.1707 79.316 26.648C79.1453 26.1253 79.06 25.56 79.06 24.952C79.06 24.3333 79.1453 23.752 79.316 23.208C79.4867 22.664 79.7427 22.1947 80.084 21.8C80.4253 21.3947 80.8467 21.08 81.348 20.856C81.86 20.6213 82.4573 20.504 83.14 20.504C83.62 20.504 84.0733 20.568 84.5 20.696C84.9373 20.8133 85.3213 20.9947 85.652 21.24C85.9933 21.4853 86.2707 21.7947 86.484 22.168C86.6973 22.5413 86.8253 22.984 86.868 23.496H85.044ZM92.1426 29.224C91.4813 29.224 90.8893 29.1173 90.3666 28.904C89.8546 28.68 89.4173 28.376 89.0546 27.992C88.7026 27.608 88.4306 27.1493 88.2386 26.616C88.0573 26.0827 87.9666 25.496 87.9666 24.856C87.9666 24.2267 88.0573 23.6453 88.2386 23.112C88.4306 22.5787 88.7026 22.12 89.0546 21.736C89.4173 21.352 89.8546 21.0533 90.3666 20.84C90.8893 20.616 91.4813 20.504 92.1426 20.504C92.804 20.504 93.3906 20.616 93.9026 20.84C94.4253 21.0533 94.8626 21.352 95.2146 21.736C95.5773 22.12 95.8493 22.5787 96.0306 23.112C96.2226 23.6453 96.3186 24.2267 96.3186 24.856C96.3186 25.496 96.2226 26.0827 96.0306 26.616C95.8493 27.1493 95.5773 27.608 95.2146 27.992C94.8626 28.376 94.4253 28.68 93.9026 28.904C93.3906 29.1173 92.804 29.224 92.1426 29.224ZM92.1426 27.784C92.548 27.784 92.9 27.6987 93.1986 27.528C93.4973 27.3573 93.7426 27.1333 93.9346 26.856C94.1266 26.5787 94.2653 26.2693 94.3506 25.928C94.4466 25.576 94.4946 25.2187 94.4946 24.856C94.4946 24.504 94.4466 24.152 94.3506 23.8C94.2653 23.448 94.1266 23.1387 93.9346 22.872C93.7426 22.5947 93.4973 22.3707 93.1986 22.2C92.9 22.0293 92.548 21.944 92.1426 21.944C91.7373 21.944 91.3853 22.0293 91.0866 22.2C90.788 22.3707 90.5426 22.5947 90.3506 22.872C90.1586 23.1387 90.0146 23.448 89.9186 23.8C89.8333 24.152 89.7906 24.504 89.7906 24.856C89.7906 25.2187 89.8333 25.576 89.9186 25.928C90.0146 26.2693 90.1586 26.5787 90.3506 26.856C90.5426 27.1333 90.788 27.3573 91.0866 27.528C91.3853 27.6987 91.7373 27.784 92.1426 27.784ZM97.019 20.728H99.003L101.099 27.08H101.131L103.147 20.728H105.035L102.075 29H100.027L97.019 20.728ZM111.812 24.136C111.791 23.848 111.727 23.5707 111.62 23.304C111.524 23.0373 111.385 22.808 111.204 22.616C111.033 22.4133 110.82 22.2533 110.564 22.136C110.319 22.008 110.041 21.944 109.732 21.944C109.412 21.944 109.119 22.0027 108.852 22.12C108.596 22.2267 108.372 22.3813 108.18 22.584C107.999 22.776 107.849 23.0053 107.732 23.272C107.625 23.5387 107.567 23.8267 107.556 24.136H111.812ZM107.556 25.336C107.556 25.656 107.599 25.9653 107.684 26.264C107.78 26.5627 107.919 26.824 108.1 27.048C108.281 27.272 108.511 27.4533 108.788 27.592C109.065 27.72 109.396 27.784 109.78 27.784C110.313 27.784 110.74 27.672 111.06 27.448C111.391 27.2133 111.636 26.8667 111.796 26.408H113.524C113.428 26.856 113.263 27.256 113.028 27.608C112.793 27.96 112.511 28.2587 112.18 28.504C111.849 28.7387 111.476 28.9147 111.06 29.032C110.655 29.16 110.228 29.224 109.78 29.224C109.129 29.224 108.553 29.1173 108.052 28.904C107.551 28.6907 107.124 28.392 106.772 28.008C106.431 27.624 106.169 27.1653 105.988 26.632C105.817 26.0987 105.732 25.512 105.732 24.872C105.732 24.2853 105.823 23.7307 106.004 23.208C106.196 22.6747 106.463 22.2107 106.804 21.816C107.156 21.4107 107.577 21.0907 108.068 20.856C108.559 20.6213 109.113 20.504 109.732 20.504C110.383 20.504 110.964 20.6427 111.476 20.92C111.999 21.1867 112.431 21.544 112.772 21.992C113.113 22.44 113.359 22.9573 113.508 23.544C113.668 24.12 113.711 24.7173 113.636 25.336H107.556ZM115.023 20.728H116.735V22.328H116.767C116.82 22.104 116.921 21.8853 117.071 21.672C117.231 21.4587 117.417 21.2667 117.631 21.096C117.855 20.9147 118.1 20.7707 118.367 20.664C118.633 20.5573 118.905 20.504 119.183 20.504C119.396 20.504 119.54 20.5093 119.615 20.52C119.7 20.5307 119.785 20.5413 119.871 20.552V22.312C119.743 22.2907 119.609 22.2747 119.471 22.264C119.343 22.2427 119.215 22.232 119.087 22.232C118.777 22.232 118.484 22.296 118.207 22.424C117.94 22.5413 117.705 22.7227 117.503 22.968C117.3 23.2027 117.14 23.496 117.023 23.848C116.905 24.2 116.847 24.6053 116.847 25.064V29H115.023V20.728ZM125.149 20.728H126.877V21.848H126.909C127.165 21.368 127.522 21.0267 127.981 20.824C128.439 20.6107 128.935 20.504 129.469 20.504C130.119 20.504 130.685 20.6213 131.165 20.856C131.655 21.08 132.061 21.3947 132.381 21.8C132.701 22.1947 132.941 22.6587 133.101 23.192C133.261 23.7253 133.341 24.296 133.341 24.904C133.341 25.4587 133.266 25.9973 133.117 26.52C132.978 27.0427 132.759 27.5067 132.461 27.912C132.173 28.3067 131.805 28.6267 131.357 28.872C130.909 29.1067 130.381 29.224 129.773 29.224C129.506 29.224 129.239 29.1973 128.973 29.144C128.706 29.1013 128.45 29.0267 128.205 28.92C127.959 28.8133 127.73 28.68 127.517 28.52C127.314 28.3493 127.143 28.152 127.005 27.928H126.973V32.056H125.149V20.728ZM131.517 24.872C131.517 24.4987 131.469 24.136 131.373 23.784C131.277 23.432 131.133 23.1227 130.941 22.856C130.749 22.5787 130.509 22.36 130.221 22.2C129.933 22.0293 129.602 21.944 129.229 21.944C128.461 21.944 127.879 22.2107 127.485 22.744C127.101 23.2773 126.909 23.9867 126.909 24.872C126.909 25.288 126.957 25.6773 127.053 26.04C127.159 26.392 127.314 26.696 127.517 26.952C127.719 27.208 127.959 27.4107 128.237 27.56C128.525 27.7093 128.855 27.784 129.229 27.784C129.645 27.784 129.997 27.6987 130.285 27.528C130.573 27.3573 130.807 27.1387 130.989 26.872C131.181 26.5947 131.314 26.2853 131.389 25.944C131.474 25.592 131.517 25.2347 131.517 24.872ZM134.882 17.576H136.706V21.816H136.738C136.962 21.4427 137.293 21.1333 137.73 20.888C138.178 20.632 138.674 20.504 139.218 20.504C140.125 20.504 140.839 20.7387 141.362 21.208C141.885 21.6773 142.146 22.3813 142.146 23.32V29H140.322V23.8C140.301 23.1493 140.162 22.68 139.906 22.392C139.65 22.0933 139.25 21.944 138.706 21.944C138.397 21.944 138.119 22.0027 137.874 22.12C137.629 22.2267 137.421 22.3813 137.25 22.584C137.079 22.776 136.946 23.0053 136.85 23.272C136.754 23.5387 136.706 23.8213 136.706 24.12V29H134.882V17.576ZM147.861 29.224C147.2 29.224 146.608 29.1173 146.085 28.904C145.573 28.68 145.136 28.376 144.773 27.992C144.421 27.608 144.149 27.1493 143.957 26.616C143.776 26.0827 143.685 25.496 143.685 24.856C143.685 24.2267 143.776 23.6453 143.957 23.112C144.149 22.5787 144.421 22.12 144.773 21.736C145.136 21.352 145.573 21.0533 146.085 20.84C146.608 20.616 147.2 20.504 147.861 20.504C148.523 20.504 149.109 20.616 149.621 20.84C150.144 21.0533 150.581 21.352 150.933 21.736C151.296 22.12 151.568 22.5787 151.749 23.112C151.941 23.6453 152.037 24.2267 152.037 24.856C152.037 25.496 151.941 26.0827 151.749 26.616C151.568 27.1493 151.296 27.608 150.933 27.992C150.581 28.376 150.144 28.68 149.621 28.904C149.109 29.1173 148.523 29.224 147.861 29.224ZM147.861 27.784C148.267 27.784 148.619 27.6987 148.917 27.528C149.216 27.3573 149.461 27.1333 149.653 26.856C149.845 26.5787 149.984 26.2693 150.069 25.928C150.165 25.576 150.213 25.2187 150.213 24.856C150.213 24.504 150.165 24.152 150.069 23.8C149.984 23.448 149.845 23.1387 149.653 22.872C149.461 22.5947 149.216 22.3707 148.917 22.2C148.619 22.0293 148.267 21.944 147.861 21.944C147.456 21.944 147.104 22.0293 146.805 22.2C146.507 22.3707 146.261 22.5947 146.069 22.872C145.877 23.1387 145.733 23.448 145.637 23.8C145.552 24.152 145.509 24.504 145.509 24.856C145.509 25.2187 145.552 25.576 145.637 25.928C145.733 26.2693 145.877 26.5787 146.069 26.856C146.261 27.1333 146.507 27.3573 146.805 27.528C147.104 27.6987 147.456 27.784 147.861 27.784ZM152.722 20.728H154.098V18.248H155.922V20.728H157.57V22.088H155.922V26.504C155.922 26.696 155.927 26.8613 155.938 27C155.959 27.1387 155.996 27.256 156.05 27.352C156.114 27.448 156.204 27.5227 156.322 27.576C156.439 27.6187 156.599 27.64 156.802 27.64C156.93 27.64 157.058 27.64 157.186 27.64C157.314 27.6293 157.442 27.608 157.57 27.576V28.984C157.367 29.0053 157.17 29.0267 156.978 29.048C156.786 29.0693 156.588 29.08 156.386 29.08C155.906 29.08 155.516 29.0373 155.218 28.952C154.93 28.856 154.7 28.7227 154.53 28.552C154.37 28.3707 154.258 28.1467 154.194 27.88C154.14 27.6133 154.108 27.3093 154.098 26.968V22.088H152.722V20.728ZM162.674 29.224C162.013 29.224 161.421 29.1173 160.898 28.904C160.386 28.68 159.949 28.376 159.586 27.992C159.234 27.608 158.962 27.1493 158.77 26.616C158.589 26.0827 158.498 25.496 158.498 24.856C158.498 24.2267 158.589 23.6453 158.77 23.112C158.962 22.5787 159.234 22.12 159.586 21.736C159.949 21.352 160.386 21.0533 160.898 20.84C161.421 20.616 162.013 20.504 162.674 20.504C163.335 20.504 163.922 20.616 164.434 20.84C164.957 21.0533 165.394 21.352 165.746 21.736C166.109 22.12 166.381 22.5787 166.562 23.112C166.754 23.6453 166.85 24.2267 166.85 24.856C166.85 25.496 166.754 26.0827 166.562 26.616C166.381 27.1493 166.109 27.608 165.746 27.992C165.394 28.376 164.957 28.68 164.434 28.904C163.922 29.1173 163.335 29.224 162.674 29.224ZM162.674 27.784C163.079 27.784 163.431 27.6987 163.73 27.528C164.029 27.3573 164.274 27.1333 164.466 26.856C164.658 26.5787 164.797 26.2693 164.882 25.928C164.978 25.576 165.026 25.2187 165.026 24.856C165.026 24.504 164.978 24.152 164.882 23.8C164.797 23.448 164.658 23.1387 164.466 22.872C164.274 22.5947 164.029 22.3707 163.73 22.2C163.431 22.0293 163.079 21.944 162.674 21.944C162.269 21.944 161.917 22.0293 161.618 22.2C161.319 22.3707 161.074 22.5947 160.882 22.872C160.69 23.1387 160.546 23.448 160.45 23.8C160.365 24.152 160.322 24.504 160.322 24.856C160.322 25.2187 160.365 25.576 160.45 25.928C160.546 26.2693 160.69 26.5787 160.882 26.856C161.074 27.1333 161.319 27.3573 161.618 27.528C161.917 27.6987 162.269 27.784 162.674 27.784Z" fill="#303030"/>
<path d="M13.6605 31.3011C13.6605 26.7793 13.6605 22.2637 13.6605 17.7418C13.6668 17.7294 13.6855 17.7169 13.6855 17.7044C13.9915 16.5677 14.6723 16.0493 15.8465 16.0493C16.7958 16.0493 17.7452 16.043 18.6945 16.0493C19.1879 16.0493 19.6001 15.8869 19.9499 15.5309C20.4995 14.9688 21.0678 14.4192 21.6175 13.8571C22.1546 13.3074 22.7916 13.0451 23.5598 13.0514C24.9339 13.0639 26.3017 13.0639 27.6757 13.0514C28.4502 13.0451 29.0997 13.3137 29.6431 13.8633C30.174 14.4067 30.7298 14.9376 31.2607 15.4872C31.6355 15.8806 32.0789 16.0555 32.616 16.0493C33.6278 16.0368 34.6396 16.0305 35.6514 16.0555C36.7381 16.0743 37.5875 16.9362 37.5875 18.0229C37.5938 22.3511 37.5938 26.6856 37.5875 31.0138C37.5875 31.3823 37.4939 31.7258 37.3002 32.0319C36.8693 32.7126 36.2447 32.9999 35.4515 32.9999C28.8999 32.9937 22.3482 32.9937 15.7965 32.9937C15.7216 32.9937 15.6404 32.9937 15.5654 32.9874C14.7098 32.95 13.9853 32.3879 13.7417 31.5572C13.7167 31.476 13.6855 31.3886 13.6605 31.3011ZM25.6334 18.0354C22.3482 18.0354 19.6501 20.721 19.6501 24.0062C19.6438 27.3102 22.3232 29.9958 25.6334 30.002C28.9311 30.002 31.6105 27.3351 31.623 24.0374C31.623 20.7335 28.9311 18.0354 25.6334 18.0354ZM33.5966 19.0409C33.047 19.0472 32.5973 19.4969 32.6098 20.0402C32.616 20.5899 33.0657 21.027 33.6153 21.0208C34.1649 21.0146 34.6084 20.5711 34.6021 20.0215C34.6021 19.4719 34.1524 19.0347 33.5966 19.0409Z" fill="#303030"/>
<path d="M30.618 23.875C30.7367 26.5294 28.557 28.8965 25.8839 29.0027C23.0671 29.1151 20.7624 26.9916 20.65 24.1686C20.5438 21.5392 22.6923 19.1908 25.2905 19.0409C28.1011 18.8785 30.5119 21.0145 30.618 23.875Z" fill="#303030"/>
</svg>
