<svg width="180" height="46" viewBox="0 0 180 46" fill="none" xmlns="http://www.w3.org/2000/svg">
<rect x="1" y="1" width="178" height="44" rx="7" fill="white" stroke="#FF5E34" stroke-width="2"/>
<path d="M64.5555 17.576H72.7795V19.304H66.5555V22.296H72.3155V23.928H66.5555V27.272H72.8915V29H64.5555V17.576ZM82.1696 29H80.4416V27.88H80.4096C80.1643 28.36 79.8069 28.7067 79.3376 28.92C78.8683 29.1227 78.3723 29.224 77.8496 29.224C77.1989 29.224 76.6283 29.112 76.1376 28.888C75.6576 28.6533 75.2576 28.3387 74.9376 27.944C74.6176 27.5493 74.3776 27.0853 74.2176 26.552C74.0576 26.008 73.9776 25.4267 73.9776 24.808C73.9776 24.0613 74.0789 23.416 74.2816 22.872C74.4843 22.328 74.7509 21.88 75.0816 21.528C75.4229 21.176 75.8069 20.92 76.2336 20.76C76.6709 20.5893 77.1136 20.504 77.5616 20.504C77.8176 20.504 78.0789 20.5307 78.3456 20.584C78.6123 20.6267 78.8683 20.7013 79.1136 20.808C79.3589 20.9147 79.5829 21.0533 79.7856 21.224C79.9989 21.384 80.1749 21.576 80.3136 21.8H80.3456V17.576H82.1696V29ZM75.8016 24.952C75.8016 25.304 75.8443 25.6507 75.9296 25.992C76.0256 26.3333 76.1643 26.6373 76.3456 26.904C76.5376 27.1707 76.7776 27.384 77.0656 27.544C77.3536 27.704 77.6949 27.784 78.0896 27.784C78.4949 27.784 78.8416 27.6987 79.1296 27.528C79.4283 27.3573 79.6683 27.1333 79.8496 26.856C80.0416 26.5787 80.1803 26.2693 80.2656 25.928C80.3616 25.576 80.4096 25.2187 80.4096 24.856C80.4096 23.9387 80.2016 23.224 79.7856 22.712C79.3803 22.2 78.8256 21.944 78.1216 21.944C77.6949 21.944 77.3323 22.0347 77.0336 22.216C76.7456 22.3867 76.5056 22.616 76.3136 22.904C76.1323 23.1813 75.9989 23.5013 75.9136 23.864C75.8389 24.216 75.8016 24.5787 75.8016 24.952ZM84.2069 17.576H86.0309V19.304H84.2069V17.576ZM84.2069 20.728H86.0309V29H84.2069V20.728ZM87.1862 20.728H88.5622V18.248H90.3862V20.728H92.0342V22.088H90.3862V26.504C90.3862 26.696 90.3916 26.8613 90.4022 27C90.4236 27.1387 90.4609 27.256 90.5142 27.352C90.5782 27.448 90.6689 27.5227 90.7862 27.576C90.9036 27.6187 91.0636 27.64 91.2662 27.64C91.3942 27.64 91.5222 27.64 91.6502 27.64C91.7782 27.6293 91.9062 27.608 92.0342 27.576V28.984C91.8316 29.0053 91.6342 29.0267 91.4422 29.048C91.2502 29.0693 91.0529 29.08 90.8502 29.08C90.3702 29.08 89.9809 29.0373 89.6822 28.952C89.3942 28.856 89.1649 28.7227 88.9942 28.552C88.8342 28.3707 88.7222 28.1467 88.6582 27.88C88.6049 27.6133 88.5729 27.3093 88.5622 26.968V22.088H87.1862V20.728ZM97.8475 20.728H99.5755V21.848H99.6075C99.8635 21.368 100.221 21.0267 100.679 20.824C101.138 20.6107 101.634 20.504 102.167 20.504C102.818 20.504 103.383 20.6213 103.863 20.856C104.354 21.08 104.759 21.3947 105.079 21.8C105.399 22.1947 105.639 22.6587 105.799 23.192C105.959 23.7253 106.039 24.296 106.039 24.904C106.039 25.4587 105.965 25.9973 105.815 26.52C105.677 27.0427 105.458 27.5067 105.159 27.912C104.871 28.3067 104.503 28.6267 104.055 28.872C103.607 29.1067 103.079 29.224 102.471 29.224C102.205 29.224 101.938 29.1973 101.671 29.144C101.405 29.1013 101.149 29.0267 100.903 28.92C100.658 28.8133 100.429 28.68 100.215 28.52C100.013 28.3493 99.8421 28.152 99.7035 27.928H99.6715V32.056H97.8475V20.728ZM104.215 24.872C104.215 24.4987 104.167 24.136 104.071 23.784C103.975 23.432 103.831 23.1227 103.639 22.856C103.447 22.5787 103.207 22.36 102.919 22.2C102.631 22.0293 102.301 21.944 101.927 21.944C101.159 21.944 100.578 22.2107 100.183 22.744C99.7995 23.2773 99.6075 23.9867 99.6075 24.872C99.6075 25.288 99.6555 25.6773 99.7515 26.04C99.8581 26.392 100.013 26.696 100.215 26.952C100.418 27.208 100.658 27.4107 100.935 27.56C101.223 27.7093 101.554 27.784 101.927 27.784C102.343 27.784 102.695 27.6987 102.983 27.528C103.271 27.3573 103.506 27.1387 103.687 26.872C103.879 26.5947 104.013 26.2853 104.087 25.944C104.173 25.592 104.215 25.2347 104.215 24.872ZM107.581 20.728H109.293V22.328H109.325C109.378 22.104 109.479 21.8853 109.629 21.672C109.789 21.4587 109.975 21.2667 110.189 21.096C110.413 20.9147 110.658 20.7707 110.925 20.664C111.191 20.5573 111.463 20.504 111.741 20.504C111.954 20.504 112.098 20.5093 112.173 20.52C112.258 20.5307 112.343 20.5413 112.429 20.552V22.312C112.301 22.2907 112.167 22.2747 112.029 22.264C111.901 22.2427 111.773 22.232 111.645 22.232C111.335 22.232 111.042 22.296 110.765 22.424C110.498 22.5413 110.263 22.7227 110.061 22.968C109.858 23.2027 109.698 23.496 109.581 23.848C109.463 24.2 109.405 24.6053 109.405 25.064V29H107.581V20.728ZM116.998 29.224C116.336 29.224 115.744 29.1173 115.222 28.904C114.71 28.68 114.272 28.376 113.91 27.992C113.558 27.608 113.286 27.1493 113.094 26.616C112.912 26.0827 112.822 25.496 112.822 24.856C112.822 24.2267 112.912 23.6453 113.094 23.112C113.286 22.5787 113.558 22.12 113.91 21.736C114.272 21.352 114.71 21.0533 115.222 20.84C115.744 20.616 116.336 20.504 116.998 20.504C117.659 20.504 118.246 20.616 118.758 20.84C119.28 21.0533 119.718 21.352 120.07 21.736C120.432 22.12 120.704 22.5787 120.886 23.112C121.078 23.6453 121.174 24.2267 121.174 24.856C121.174 25.496 121.078 26.0827 120.886 26.616C120.704 27.1493 120.432 27.608 120.07 27.992C119.718 28.376 119.28 28.68 118.758 28.904C118.246 29.1173 117.659 29.224 116.998 29.224ZM116.998 27.784C117.403 27.784 117.755 27.6987 118.054 27.528C118.352 27.3573 118.598 27.1333 118.79 26.856C118.982 26.5787 119.12 26.2693 119.206 25.928C119.302 25.576 119.35 25.2187 119.35 24.856C119.35 24.504 119.302 24.152 119.206 23.8C119.12 23.448 118.982 23.1387 118.79 22.872C118.598 22.5947 118.352 22.3707 118.054 22.2C117.755 22.0293 117.403 21.944 116.998 21.944C116.592 21.944 116.24 22.0293 115.942 22.2C115.643 22.3707 115.398 22.5947 115.206 22.872C115.014 23.1387 114.87 23.448 114.774 23.8C114.688 24.152 114.646 24.504 114.646 24.856C114.646 25.2187 114.688 25.576 114.774 25.928C114.87 26.2693 115.014 26.5787 115.206 26.856C115.398 27.1333 115.643 27.3573 115.942 27.528C116.24 27.6987 116.592 27.784 116.998 27.784ZM121.874 20.728H123.234V20.04C123.234 19.5173 123.298 19.096 123.426 18.776C123.554 18.4453 123.725 18.1947 123.938 18.024C124.151 17.8427 124.391 17.7253 124.658 17.672C124.935 17.608 125.223 17.576 125.522 17.576C126.109 17.576 126.535 17.6133 126.802 17.688V19.112C126.685 19.08 126.557 19.0587 126.418 19.048C126.29 19.0267 126.135 19.016 125.954 19.016C125.709 19.016 125.495 19.0747 125.314 19.192C125.143 19.3093 125.058 19.5387 125.058 19.88V20.728H126.61V22.088H125.058V29H123.234V22.088H121.874V20.728ZM127.785 17.576H129.609V19.304H127.785V17.576ZM127.785 20.728H129.609V29H127.785V20.728ZM131.644 17.576H133.468V29H131.644V17.576ZM141.136 24.136C141.114 23.848 141.05 23.5707 140.944 23.304C140.848 23.0373 140.709 22.808 140.528 22.616C140.357 22.4133 140.144 22.2533 139.888 22.136C139.642 22.008 139.365 21.944 139.056 21.944C138.736 21.944 138.442 22.0027 138.176 22.12C137.92 22.2267 137.696 22.3813 137.504 22.584C137.322 22.776 137.173 23.0053 137.056 23.272C136.949 23.5387 136.89 23.8267 136.88 24.136H141.136ZM136.88 25.336C136.88 25.656 136.922 25.9653 137.008 26.264C137.104 26.5627 137.242 26.824 137.424 27.048C137.605 27.272 137.834 27.4533 138.112 27.592C138.389 27.72 138.72 27.784 139.104 27.784C139.637 27.784 140.064 27.672 140.384 27.448C140.714 27.2133 140.96 26.8667 141.12 26.408H142.848C142.752 26.856 142.586 27.256 142.352 27.608C142.117 27.96 141.834 28.2587 141.504 28.504C141.173 28.7387 140.8 28.9147 140.384 29.032C139.978 29.16 139.552 29.224 139.104 29.224C138.453 29.224 137.877 29.1173 137.376 28.904C136.874 28.6907 136.448 28.392 136.096 28.008C135.754 27.624 135.493 27.1653 135.312 26.632C135.141 26.0987 135.056 25.512 135.056 24.872C135.056 24.2853 135.146 23.7307 135.328 23.208C135.52 22.6747 135.786 22.2107 136.128 21.816C136.48 21.4107 136.901 21.0907 137.392 20.856C137.882 20.6213 138.437 20.504 139.056 20.504C139.706 20.504 140.288 20.6427 140.8 20.92C141.322 21.1867 141.754 21.544 142.096 21.992C142.437 22.44 142.682 22.9573 142.832 23.544C142.992 24.12 143.034 24.7173 142.96 25.336H136.88Z" fill="#FF5E34"/>
<path d="M35.8499 31.7706C35.4618 31.6356 35.1525 31.4219 35.04 30.9945C34.8601 30.3027 35.3044 29.7066 36.0186 29.7066C37.5989 29.701 39.1736 29.7066 40.754 29.7066C44.4714 29.7066 48.1888 29.7066 51.9006 29.7066C52.5811 29.7066 53.0704 30.2353 52.9917 30.882C52.9411 31.2813 52.6992 31.5344 52.3337 31.6862C52.2549 31.72 52.1762 31.7425 52.1031 31.7706C46.6872 31.7706 41.2658 31.7706 35.8499 31.7706Z" fill="#FF5E34"/>
<path d="M36.6484 27.8335C36.5753 27.8448 36.5191 27.7773 36.5303 27.7042C36.7721 26.45 37.014 25.2184 37.2558 23.9923C37.2727 23.9192 37.3233 23.8405 37.3795 23.7843C40.4727 20.6911 43.5602 17.5923 46.6478 14.5047C47.3227 13.8299 48.3968 13.8355 49.0717 14.4991C49.3417 14.7635 49.6116 15.0334 49.8759 15.3033C50.6014 16.057 50.607 17.0243 49.8759 17.761C46.7828 20.8711 43.6896 23.9811 40.5908 27.0855C40.5346 27.1418 40.4558 27.1924 40.3827 27.2092C39.1398 27.4173 37.8913 27.6254 36.6484 27.8335Z" fill="#FF5E34"/>
</svg>
