<svg width="150" height="35" viewBox="0 0 150 35" fill="none" xmlns="http://www.w3.org/2000/svg">
<rect x="1" y="1" width="148" height="33" rx="4" fill="white" stroke="#FF5E34" stroke-width="2"/>
<path d="M66.9168 12.004H73.8188V13.516H68.6668V16.134H73.1888V17.562H68.6668V22H66.9168V12.004ZM78.3097 22.196C77.731 22.196 77.213 22.1027 76.7557 21.916C76.3077 21.72 75.925 21.454 75.6077 21.118C75.2997 20.782 75.0617 20.3807 74.8937 19.914C74.735 19.4473 74.6557 18.934 74.6557 18.374C74.6557 17.8233 74.735 17.3147 74.8937 16.848C75.0617 16.3813 75.2997 15.98 75.6077 15.644C75.925 15.308 76.3077 15.0467 76.7557 14.86C77.213 14.664 77.731 14.566 78.3097 14.566C78.8883 14.566 79.4017 14.664 79.8497 14.86C80.307 15.0467 80.6897 15.308 80.9977 15.644C81.315 15.98 81.553 16.3813 81.7117 16.848C81.8797 17.3147 81.9637 17.8233 81.9637 18.374C81.9637 18.934 81.8797 19.4473 81.7117 19.914C81.553 20.3807 81.315 20.782 80.9977 21.118C80.6897 21.454 80.307 21.72 79.8497 21.916C79.4017 22.1027 78.8883 22.196 78.3097 22.196ZM78.3097 20.936C78.6643 20.936 78.9723 20.8613 79.2337 20.712C79.495 20.5627 79.7097 20.3667 79.8777 20.124C80.0457 19.8813 80.167 19.6107 80.2417 19.312C80.3257 19.004 80.3677 18.6913 80.3677 18.374C80.3677 18.066 80.3257 17.758 80.2417 17.45C80.167 17.142 80.0457 16.8713 79.8777 16.638C79.7097 16.3953 79.495 16.1993 79.2337 16.05C78.9723 15.9007 78.6643 15.826 78.3097 15.826C77.955 15.826 77.647 15.9007 77.3857 16.05C77.1243 16.1993 76.9097 16.3953 76.7417 16.638C76.5737 16.8713 76.4477 17.142 76.3637 17.45C76.289 17.758 76.2517 18.066 76.2517 18.374C76.2517 18.6913 76.289 19.004 76.3637 19.312C76.4477 19.6107 76.5737 19.8813 76.7417 20.124C76.9097 20.3667 77.1243 20.5627 77.3857 20.712C77.647 20.8613 77.955 20.936 78.3097 20.936ZM83.3325 12.004H84.9285V22H83.3325V12.004ZM86.7095 12.004H88.3055V22H86.7095V12.004ZM93.3624 22.196C92.7837 22.196 92.2657 22.1027 91.8084 21.916C91.3604 21.72 90.9777 21.454 90.6604 21.118C90.3524 20.782 90.1144 20.3807 89.9464 19.914C89.7877 19.4473 89.7084 18.934 89.7084 18.374C89.7084 17.8233 89.7877 17.3147 89.9464 16.848C90.1144 16.3813 90.3524 15.98 90.6604 15.644C90.9777 15.308 91.3604 15.0467 91.8084 14.86C92.2657 14.664 92.7837 14.566 93.3624 14.566C93.9411 14.566 94.4544 14.664 94.9024 14.86C95.3597 15.0467 95.7424 15.308 96.0504 15.644C96.3677 15.98 96.6057 16.3813 96.7644 16.848C96.9324 17.3147 97.0164 17.8233 97.0164 18.374C97.0164 18.934 96.9324 19.4473 96.7644 19.914C96.6057 20.3807 96.3677 20.782 96.0504 21.118C95.7424 21.454 95.3597 21.72 94.9024 21.916C94.4544 22.1027 93.9411 22.196 93.3624 22.196ZM93.3624 20.936C93.7171 20.936 94.0251 20.8613 94.2864 20.712C94.5477 20.5627 94.7624 20.3667 94.9304 20.124C95.0984 19.8813 95.2197 19.6107 95.2944 19.312C95.3784 19.004 95.4204 18.6913 95.4204 18.374C95.4204 18.066 95.3784 17.758 95.2944 17.45C95.2197 17.142 95.0984 16.8713 94.9304 16.638C94.7624 16.3953 94.5477 16.1993 94.2864 16.05C94.0251 15.9007 93.7171 15.826 93.3624 15.826C93.0077 15.826 92.6997 15.9007 92.4384 16.05C92.1771 16.1993 91.9624 16.3953 91.7944 16.638C91.6264 16.8713 91.5004 17.142 91.4164 17.45C91.3417 17.758 91.3044 18.066 91.3044 18.374C91.3044 18.6913 91.3417 19.004 91.4164 19.312C91.5004 19.6107 91.6264 19.8813 91.7944 20.124C91.9624 20.3667 92.1771 20.5627 92.4384 20.712C92.6997 20.8613 93.0077 20.936 93.3624 20.936ZM97.6852 14.762H99.3792L100.793 20.166H100.821L102.179 14.762H103.789L105.091 20.166H105.119L106.589 14.762H108.213L105.945 22H104.307L102.963 16.624H102.935L101.605 22H99.9252L97.6852 14.762Z" fill="#FF5E34"/>
<path d="M52.5292 25.6611C52.3292 25.6203 52.1211 25.5918 51.9252 25.5346C50.8112 25.2164 49.9664 24.1884 49.8603 23.0257C49.7298 21.6387 50.5459 20.3863 51.864 19.9457C53.5535 19.3786 55.398 20.5046 55.6633 22.2669C55.6755 22.3485 55.6877 22.426 55.7 22.5036C55.7 22.6545 55.7 22.8014 55.7 22.9523C55.6959 22.9809 55.6837 23.0094 55.6837 23.038C55.549 24.2537 54.6961 25.2491 53.5127 25.5591C53.3454 25.604 53.1699 25.6244 52.9944 25.657C52.8393 25.6611 52.6843 25.6611 52.5292 25.6611ZM52.3252 23.1604C52.3333 23.1848 52.3374 23.1889 52.3374 23.1971C52.3374 23.4337 52.3374 23.6703 52.3415 23.9069C52.3456 24.1639 52.5251 24.3516 52.77 24.3557C53.0148 24.3557 53.2025 24.168 53.2066 23.9069C53.2107 23.6989 53.2066 23.4867 53.2066 23.2787C53.2066 23.242 53.2107 23.2052 53.2107 23.1644C53.4637 23.1644 53.7086 23.1685 53.9534 23.1644C54.2105 23.1604 54.3982 22.9768 54.4023 22.7361C54.4023 22.4913 54.2146 22.3037 53.9534 22.2996C53.7453 22.2955 53.5331 22.2996 53.325 22.2996C53.2882 22.2996 53.2515 22.2955 53.2229 22.2955C53.2148 22.2792 53.2107 22.271 53.2107 22.2629C53.2107 22.0263 53.2107 21.7896 53.2066 21.553C53.2025 21.296 53.0189 21.1084 52.7781 21.1043C52.5333 21.1043 52.3456 21.2919 52.3415 21.553C52.3374 21.7611 52.3415 21.9732 52.3415 22.1813C52.3415 22.218 52.3374 22.2547 52.3374 22.2955C52.2884 22.2955 52.2517 22.2955 52.215 22.2955C51.9946 22.2955 51.7742 22.2914 51.5539 22.2996C51.2764 22.3077 51.0887 22.5811 51.1621 22.8462C51.2152 23.0339 51.3702 23.1563 51.5743 23.1604C51.8232 23.1644 52.0721 23.1604 52.3252 23.1604Z" fill="#FF5E34"/>
<path d="M46.714 18.7546C45.2939 19.3175 44.3064 20.2925 43.735 21.6918C41.8334 19.7459 41.2825 16.368 43.1637 13.6919C45.0327 11.0361 48.6402 10.2161 51.4763 11.8153C54.4268 13.4756 55.2348 16.7923 54.4594 19.1707C54.1574 19.0809 53.8636 18.9708 53.5576 18.9055C52.7618 18.7342 51.9865 18.8198 51.2397 19.138C51.1417 19.1788 51.0764 19.1707 50.9867 19.1258C50.6969 18.9789 50.4031 18.8402 50.1011 18.6934C50.8928 17.9754 51.2274 17.0779 50.9948 16.005C50.8479 15.3359 50.4765 14.8056 49.9175 14.4099C48.7871 13.6144 47.2201 13.8142 46.3223 14.8627C45.3837 15.9519 45.4204 17.7102 46.714 18.7546Z" fill="#FF5E34"/>
<path d="M50.1705 19.7993C49.0524 20.8803 48.6484 22.1613 48.9667 23.7034C48.6728 23.7034 48.3831 23.7156 48.0934 23.6993C46.8283 23.6381 45.6816 23.2424 44.6492 22.5121C44.5512 22.4428 44.5431 22.3775 44.5757 22.2755C45.1552 20.4071 47.0201 19.2077 48.9667 19.4525C49.3788 19.5096 49.7787 19.6198 50.1705 19.7993Z" fill="#FF5E34"/>
<path d="M50.0766 16.6164C50.0766 17.5587 49.3135 18.3257 48.3708 18.3298C47.4241 18.3339 46.6487 17.5628 46.6487 16.6164C46.6528 15.6781 47.42 14.9111 48.3627 14.9111C49.3094 14.9111 50.0766 15.674 50.0766 16.6164Z" fill="#FF5E34"/>
</svg>
