<svg width="36" height="36" viewBox="0 0 36 36" fill="none" xmlns="http://www.w3.org/2000/svg">
<circle cx="18" cy="18" r="18" fill="#564C4C"/>
<path d="M20.083 11.7404C21.6027 11.7404 23.1224 11.7404 24.6372 11.7404C25.3036 11.7404 25.8117 12.2438 25.8117 12.8862C25.8117 13.5094 25.318 14.0223 24.6947 14.0367C24.4023 14.0463 24.1099 14.0367 23.8175 14.0367C21.0562 14.0367 18.2949 14.0367 15.5288 14.0367C14.8577 14.0367 14.3495 13.5669 14.3256 12.9389C14.3112 12.2773 14.8193 11.7452 15.4905 11.7404C16.9382 11.7356 18.386 11.7404 19.8289 11.7404C19.9152 11.7404 20.0015 11.7404 20.083 11.7404Z" fill="white"/>
<path d="M20.0686 18.1901C18.5441 18.1901 17.0196 18.1949 15.4952 18.1901C14.8288 18.1901 14.3207 17.6676 14.3303 17.0156C14.3399 16.4211 14.824 15.9226 15.4233 15.8986C15.5911 15.8938 15.7589 15.8986 15.9266 15.8986C18.8269 15.8986 21.7273 15.8986 24.6276 15.8986C25.2891 15.8986 25.8021 16.378 25.8164 17.0108C25.8308 17.6724 25.3227 18.1901 24.6419 18.1949C23.1175 18.1949 21.593 18.1901 20.0686 18.1901Z" fill="white"/>
<path d="M20.0638 22.3425C18.5394 22.3425 17.0149 22.3473 15.4904 22.3425C14.6659 22.3377 14.1146 21.5323 14.4118 20.7797C14.5892 20.329 15.0063 20.051 15.524 20.051C17.2354 20.051 18.942 20.051 20.6535 20.051C21.991 20.051 23.3332 20.0462 24.6707 20.0558C25.1501 20.0606 25.5097 20.2859 25.711 20.7221C25.9124 21.1584 25.8453 21.5755 25.5432 21.9446C25.3083 22.2274 24.9919 22.3473 24.6228 22.3473C23.0983 22.3425 21.5835 22.3425 20.0638 22.3425Z" fill="white"/>
<path d="M12.4703 12.8965C12.4703 13.5293 11.9477 14.0423 11.3149 14.0375C10.6821 14.0327 10.1692 13.515 10.174 12.8774C10.1788 12.2542 10.6965 11.7412 11.3197 11.7412C11.9573 11.7412 12.4703 12.259 12.4703 12.8965Z" fill="white"/>
<path d="M12.4702 17.0326C12.475 17.6654 11.9621 18.1879 11.3245 18.1879C10.6917 18.1879 10.174 17.675 10.174 17.0374C10.174 16.4094 10.6821 15.8964 11.3101 15.8916C11.9429 15.8868 12.4654 16.3998 12.4702 17.0326Z" fill="white"/>
<path d="M12.4703 21.1983C12.4655 21.8311 11.9477 22.344 11.3101 22.3392C10.6773 22.3345 10.1692 21.8119 10.174 21.1743C10.1788 20.5511 10.6965 20.043 11.3245 20.043C11.9573 20.043 12.4751 20.5607 12.4703 21.1983Z" fill="white"/>
</svg>
