<svg width="15" height="18" viewBox="0 0 15 18" fill="none" xmlns="http://www.w3.org/2000/svg">
<path d="M6.07912 18C5.82563 17.9765 5.56744 17.953 5.31395 17.9343C3.55828 17.8122 1.84017 17.493 0.150218 17.0095C0.0328601 16.9766 0 16.9203 0 16.8029C0.0046943 14.2539 0.0046943 11.7096 0 9.16061C0 9.03856 0.0281658 8.97753 0.154912 8.93998C1.38482 8.58791 2.6335 8.32503 3.90566 8.16072C5.07454 8.00581 6.24812 7.9307 7.42169 7.95417C9.41208 7.99173 11.3649 8.27339 13.2896 8.77568C13.4867 8.82732 13.6839 8.88834 13.8811 8.93528C14.0078 8.96345 14.0547 9.02448 14.0547 9.16061C14.05 10.367 14.05 11.5735 14.05 12.7799C14.05 14.1225 14.05 15.4604 14.0547 16.8029C14.0547 16.925 14.0172 16.9766 13.9045 17.0095C12.576 17.3897 11.2335 17.6761 9.85804 17.8263C9.29941 17.8873 8.74079 17.9249 8.18217 17.9718C8.12584 17.9765 8.06951 17.9906 8.01318 18C7.36536 18 6.72224 18 6.07912 18ZM7.55313 13.5263C8.52955 13.1461 8.85346 12.2729 8.69385 11.5406C8.52016 10.7332 7.85357 10.1981 7.04145 10.184C6.26689 10.1746 5.56275 10.7097 5.37498 11.4608C5.19659 12.165 5.44539 13.1085 6.50161 13.531C6.50161 14.0943 6.50161 14.6576 6.50161 15.235C6.85838 15.235 7.20106 15.235 7.55313 15.235C7.55313 14.6529 7.55313 14.0849 7.55313 13.5263Z" fill="white"/>
<path d="M3.85892 7.08574C3.04681 7.22657 2.24877 7.3674 1.43666 7.51292C1.43666 7.40026 1.43666 7.2876 1.43666 7.17024C1.43666 6.60692 1.42727 6.04361 1.44135 5.48498C1.49299 3.6589 2.25347 2.1802 3.71809 1.10051C6.92899 -1.26542 11.459 0.368194 12.4448 4.2363C12.5528 4.66348 12.5903 5.11413 12.6091 5.5554C12.6373 6.17035 12.6185 6.78531 12.6185 7.40026C12.6185 7.44251 12.6138 7.48006 12.6091 7.51292C11.8064 7.37209 11.0083 7.23127 10.1962 7.09044C10.1962 6.58815 10.2009 6.08586 10.1962 5.58357C10.1868 4.26447 9.3935 3.11906 8.1589 2.64024C6.27179 1.90793 4.16405 3.14253 3.90117 5.14699C3.83545 5.65398 3.86831 6.17505 3.85892 6.68673C3.85892 6.82286 3.85892 6.9543 3.85892 7.08574Z" fill="white"/>
<path d="M7.01853 12.55C6.66176 12.5453 6.36133 12.2448 6.36133 11.8881C6.36133 11.5266 6.67115 11.2168 7.03261 11.2215C7.38938 11.2262 7.68982 11.5313 7.68982 11.8834C7.69451 12.2495 7.38469 12.5547 7.01853 12.55Z" fill="white"/>
</svg>
