<svg width="150" height="35" viewBox="0 0 150 35" fill="none" xmlns="http://www.w3.org/2000/svg">
<rect width="150" height="35" rx="5" fill="#FF5E34"/>
<path d="M60.5721 11.8956H63.0361L65.7941 19.7216H65.8221L68.5101 11.8956H70.9461V21.8916H69.2801V14.1776H69.2521L66.4801 21.8916H65.0381L62.2661 14.1776H62.2381V21.8916H60.5721V11.8956ZM77.7875 17.6356C77.7689 17.3836 77.7129 17.1409 77.6195 16.9076C77.5355 16.6743 77.4142 16.4736 77.2555 16.3056C77.1062 16.1283 76.9195 15.9883 76.6955 15.8856C76.4809 15.7736 76.2382 15.7176 75.9675 15.7176C75.6875 15.7176 75.4309 15.7689 75.1975 15.8716C74.9735 15.9649 74.7775 16.1003 74.6095 16.2776C74.4509 16.4456 74.3202 16.6463 74.2175 16.8796C74.1242 17.1129 74.0729 17.3649 74.0635 17.6356H77.7875ZM74.0635 18.6856C74.0635 18.9656 74.1009 19.2363 74.1755 19.4976C74.2595 19.7589 74.3809 19.9876 74.5395 20.1836C74.6982 20.3796 74.8989 20.5383 75.1415 20.6596C75.3842 20.7716 75.6735 20.8276 76.0095 20.8276C76.4762 20.8276 76.8495 20.7296 77.1295 20.5336C77.4189 20.3283 77.6335 20.0249 77.7735 19.6236H79.2855C79.2015 20.0156 79.0569 20.3656 78.8515 20.6736C78.6462 20.9816 78.3989 21.2429 78.1095 21.4576C77.8202 21.6629 77.4935 21.8169 77.1295 21.9196C76.7749 22.0316 76.4015 22.0876 76.0095 22.0876C75.4402 22.0876 74.9362 21.9943 74.4975 21.8076C74.0589 21.6209 73.6855 21.3596 73.3775 21.0236C73.0789 20.6876 72.8502 20.2863 72.6915 19.8196C72.5422 19.3529 72.4675 18.8396 72.4675 18.2796C72.4675 17.7663 72.5469 17.2809 72.7055 16.8236C72.8735 16.3569 73.1069 15.9509 73.4055 15.6056C73.7135 15.2509 74.0822 14.9709 74.5115 14.7656C74.9409 14.5603 75.4262 14.4576 75.9675 14.4576C76.5369 14.4576 77.0455 14.5789 77.4935 14.8216C77.9509 15.0549 78.3289 15.3676 78.6275 15.7596C78.9262 16.1516 79.1409 16.6043 79.2715 17.1176C79.4115 17.6216 79.4489 18.1443 79.3835 18.6856H74.0635ZM81.8008 19.5676C81.8475 20.0343 82.0248 20.3609 82.3328 20.5476C82.6408 20.7343 83.0095 20.8276 83.4388 20.8276C83.5882 20.8276 83.7562 20.8183 83.9428 20.7996C84.1388 20.7716 84.3208 20.7249 84.4888 20.6596C84.6568 20.5943 84.7922 20.5009 84.8948 20.3796C85.0068 20.2489 85.0582 20.0809 85.0488 19.8756C85.0395 19.6703 84.9648 19.5023 84.8248 19.3716C84.6848 19.2409 84.5028 19.1383 84.2788 19.0636C84.0642 18.9796 83.8168 18.9096 83.5368 18.8536C83.2568 18.7976 82.9722 18.7369 82.6828 18.6716C82.3842 18.6063 82.0948 18.5269 81.8148 18.4336C81.5442 18.3403 81.2968 18.2143 81.0728 18.0556C80.8582 17.8969 80.6855 17.6963 80.5548 17.4536C80.4242 17.2016 80.3588 16.8936 80.3588 16.5296C80.3588 16.1376 80.4522 15.8109 80.6388 15.5496C80.8348 15.2789 81.0775 15.0643 81.3668 14.9056C81.6655 14.7376 81.9922 14.6209 82.3468 14.5556C82.7108 14.4903 83.0562 14.4576 83.3828 14.4576C83.7562 14.4576 84.1108 14.4996 84.4468 14.5836C84.7922 14.6583 85.1002 14.7843 85.3708 14.9616C85.6508 15.1389 85.8795 15.3723 86.0568 15.6616C86.2435 15.9416 86.3602 16.2823 86.4068 16.6836H84.7408C84.6662 16.3009 84.4888 16.0443 84.2088 15.9136C83.9382 15.7829 83.6255 15.7176 83.2708 15.7176C83.1588 15.7176 83.0235 15.7269 82.8648 15.7456C82.7155 15.7643 82.5708 15.8016 82.4308 15.8576C82.3002 15.9043 82.1882 15.9789 82.0948 16.0816C82.0015 16.1749 81.9548 16.3009 81.9548 16.4596C81.9548 16.6556 82.0202 16.8143 82.1508 16.9356C82.2908 17.0569 82.4682 17.1596 82.6828 17.2436C82.9068 17.3183 83.1588 17.3836 83.4388 17.4396C83.7188 17.4956 84.0082 17.5563 84.3068 17.6216C84.5962 17.6869 84.8808 17.7663 85.1608 17.8596C85.4408 17.9529 85.6882 18.0789 85.9028 18.2376C86.1268 18.3963 86.3042 18.5969 86.4348 18.8396C86.5748 19.0823 86.6448 19.3809 86.6448 19.7356C86.6448 20.1649 86.5468 20.5289 86.3508 20.8276C86.1548 21.1263 85.8982 21.3689 85.5808 21.5556C85.2728 21.7423 84.9275 21.8776 84.5448 21.9616C84.1622 22.0456 83.7842 22.0876 83.4108 22.0876C82.9535 22.0876 82.5288 22.0363 82.1368 21.9336C81.7542 21.8309 81.4182 21.6769 81.1288 21.4716C80.8488 21.2569 80.6248 20.9956 80.4568 20.6876C80.2982 20.3703 80.2142 19.9969 80.2048 19.5676H81.8008ZM89.0606 19.5676C89.1073 20.0343 89.2846 20.3609 89.5926 20.5476C89.9006 20.7343 90.2693 20.8276 90.6986 20.8276C90.8479 20.8276 91.0159 20.8183 91.2026 20.7996C91.3986 20.7716 91.5806 20.7249 91.7486 20.6596C91.9166 20.5943 92.0519 20.5009 92.1546 20.3796C92.2666 20.2489 92.3179 20.0809 92.3086 19.8756C92.2993 19.6703 92.2246 19.5023 92.0846 19.3716C91.9446 19.2409 91.7626 19.1383 91.5386 19.0636C91.3239 18.9796 91.0766 18.9096 90.7966 18.8536C90.5166 18.7976 90.2319 18.7369 89.9426 18.6716C89.6439 18.6063 89.3546 18.5269 89.0746 18.4336C88.8039 18.3403 88.5566 18.2143 88.3326 18.0556C88.1179 17.8969 87.9453 17.6963 87.8146 17.4536C87.6839 17.2016 87.6186 16.8936 87.6186 16.5296C87.6186 16.1376 87.7119 15.8109 87.8986 15.5496C88.0946 15.2789 88.3373 15.0643 88.6266 14.9056C88.9253 14.7376 89.2519 14.6209 89.6066 14.5556C89.9706 14.4903 90.3159 14.4576 90.6426 14.4576C91.0159 14.4576 91.3706 14.4996 91.7066 14.5836C92.0519 14.6583 92.3599 14.7843 92.6306 14.9616C92.9106 15.1389 93.1393 15.3723 93.3166 15.6616C93.5033 15.9416 93.6199 16.2823 93.6666 16.6836H92.0006C91.9259 16.3009 91.7486 16.0443 91.4686 15.9136C91.1979 15.7829 90.8853 15.7176 90.5306 15.7176C90.4186 15.7176 90.2833 15.7269 90.1246 15.7456C89.9753 15.7643 89.8306 15.8016 89.6906 15.8576C89.5599 15.9043 89.4479 15.9789 89.3546 16.0816C89.2613 16.1749 89.2146 16.3009 89.2146 16.4596C89.2146 16.6556 89.2799 16.8143 89.4106 16.9356C89.5506 17.0569 89.7279 17.1596 89.9426 17.2436C90.1666 17.3183 90.4186 17.3836 90.6986 17.4396C90.9786 17.4956 91.2679 17.5563 91.5666 17.6216C91.8559 17.6869 92.1406 17.7663 92.4206 17.8596C92.7006 17.9529 92.9479 18.0789 93.1626 18.2376C93.3866 18.3963 93.5639 18.5969 93.6946 18.8396C93.8346 19.0823 93.9046 19.3809 93.9046 19.7356C93.9046 20.1649 93.8066 20.5289 93.6106 20.8276C93.4146 21.1263 93.1579 21.3689 92.8406 21.5556C92.5326 21.7423 92.1873 21.8776 91.8046 21.9616C91.4219 22.0456 91.0439 22.0876 90.6706 22.0876C90.2133 22.0876 89.7886 22.0363 89.3966 21.9336C89.0139 21.8309 88.6779 21.6769 88.3886 21.4716C88.1086 21.2569 87.8846 20.9956 87.7166 20.6876C87.5579 20.3703 87.4739 19.9969 87.4646 19.5676H89.0606ZM101.178 20.2816C101.178 20.4776 101.202 20.6176 101.248 20.7016C101.304 20.7856 101.407 20.8276 101.556 20.8276C101.556 20.8276 101.612 20.8276 101.724 20.8276C101.79 20.8276 101.864 20.8183 101.948 20.7996V21.9056C101.892 21.9243 101.818 21.9429 101.724 21.9616C101.64 21.9896 101.552 22.0129 101.458 22.0316C101.365 22.0503 101.272 22.0643 101.178 22.0736C101.085 22.0829 101.006 22.0876 100.94 22.0876C100.614 22.0876 100.343 22.0223 100.128 21.8916C99.9137 21.7609 99.7737 21.5323 99.7084 21.2056C99.391 21.5136 98.999 21.7376 98.5324 21.8776C98.075 22.0176 97.6317 22.0876 97.2024 22.0876C96.8757 22.0876 96.563 22.0409 96.2644 21.9476C95.9657 21.8636 95.6997 21.7376 95.4664 21.5696C95.2424 21.3923 95.0604 21.1729 94.9204 20.9116C94.7897 20.6409 94.7244 20.3283 94.7244 19.9736C94.7244 19.5256 94.8037 19.1616 94.9624 18.8816C95.1304 18.6016 95.345 18.3823 95.6064 18.2236C95.877 18.0649 96.1757 17.9529 96.5024 17.8876C96.8384 17.8129 97.1744 17.7569 97.5104 17.7196C97.7997 17.6636 98.075 17.6263 98.3364 17.6076C98.5977 17.5796 98.8264 17.5376 99.0224 17.4816C99.2277 17.4256 99.3864 17.3416 99.4984 17.2296C99.6197 17.1083 99.6804 16.9309 99.6804 16.6976C99.6804 16.4923 99.629 16.3243 99.5264 16.1936C99.433 16.0629 99.3117 15.9649 99.1624 15.8996C99.0224 15.8249 98.8637 15.7783 98.6864 15.7596C98.509 15.7316 98.341 15.7176 98.1824 15.7176C97.7344 15.7176 97.3657 15.8109 97.0764 15.9976C96.787 16.1843 96.6237 16.4736 96.5864 16.8656H94.9904C95.0184 16.3989 95.1304 16.0116 95.3264 15.7036C95.5224 15.3956 95.7697 15.1483 96.0684 14.9616C96.3764 14.7749 96.7217 14.6443 97.1044 14.5696C97.487 14.4949 97.879 14.4576 98.2804 14.4576C98.635 14.4576 98.985 14.4949 99.3304 14.5696C99.6757 14.6443 99.9837 14.7656 100.254 14.9336C100.534 15.1016 100.758 15.3209 100.926 15.5916C101.094 15.8529 101.178 16.1749 101.178 16.5576V20.2816ZM99.5824 18.2656C99.3397 18.4243 99.041 18.5223 98.6864 18.5596C98.3317 18.5876 97.977 18.6343 97.6224 18.6996C97.4544 18.7276 97.291 18.7696 97.1324 18.8256C96.9737 18.8723 96.8337 18.9423 96.7124 19.0356C96.591 19.1196 96.493 19.2363 96.4184 19.3856C96.353 19.5256 96.3204 19.6983 96.3204 19.9036C96.3204 20.0809 96.3717 20.2303 96.4744 20.3516C96.577 20.4729 96.6984 20.5709 96.8384 20.6456C96.9877 20.7109 97.1464 20.7576 97.3144 20.7856C97.4917 20.8136 97.6504 20.8276 97.7904 20.8276C97.9677 20.8276 98.159 20.8043 98.3644 20.7576C98.5697 20.7109 98.761 20.6316 98.9384 20.5196C99.125 20.4076 99.279 20.2676 99.4004 20.0996C99.5217 19.9223 99.5824 19.7076 99.5824 19.4556V18.2656ZM109.588 21.5136C109.588 22.6056 109.28 23.4176 108.664 23.9496C108.057 24.4909 107.18 24.7616 106.032 24.7616C105.668 24.7616 105.299 24.7243 104.926 24.6496C104.562 24.5749 104.226 24.4489 103.918 24.2716C103.619 24.0943 103.367 23.8609 103.162 23.5716C102.956 23.2823 102.835 22.9276 102.798 22.5076H104.394C104.44 22.7316 104.52 22.9136 104.632 23.0536C104.744 23.1936 104.874 23.3009 105.024 23.3756C105.182 23.4596 105.355 23.5109 105.542 23.5296C105.728 23.5576 105.924 23.5716 106.13 23.5716C106.774 23.5716 107.245 23.4129 107.544 23.0956C107.842 22.7783 107.992 22.3209 107.992 21.7236V20.6176H107.964C107.74 21.0189 107.432 21.3316 107.04 21.5556C106.657 21.7796 106.242 21.8916 105.794 21.8916C105.215 21.8916 104.72 21.7936 104.31 21.5976C103.908 21.3923 103.572 21.1169 103.302 20.7716C103.04 20.4169 102.849 20.0109 102.728 19.5536C102.606 19.0963 102.546 18.6063 102.546 18.0836C102.546 17.5983 102.62 17.1363 102.77 16.6976C102.919 16.2589 103.134 15.8763 103.414 15.5496C103.694 15.2136 104.034 14.9476 104.436 14.7516C104.846 14.5556 105.308 14.4576 105.822 14.4576C106.279 14.4576 106.699 14.5556 107.082 14.7516C107.464 14.9383 107.758 15.2369 107.964 15.6476H107.992V14.6536H109.588V21.5136ZM106.046 20.6316C106.4 20.6316 106.699 20.5616 106.942 20.4216C107.194 20.2723 107.394 20.0809 107.544 19.8476C107.702 19.6049 107.814 19.3343 107.88 19.0356C107.954 18.7276 107.992 18.4196 107.992 18.1116C107.992 17.8036 107.954 17.5049 107.88 17.2156C107.805 16.9263 107.688 16.6696 107.53 16.4456C107.38 16.2216 107.18 16.0443 106.928 15.9136C106.685 15.7829 106.391 15.7176 106.046 15.7176C105.691 15.7176 105.392 15.7923 105.15 15.9416C104.907 16.0909 104.711 16.2869 104.562 16.5296C104.412 16.7629 104.305 17.0336 104.24 17.3416C104.174 17.6403 104.142 17.9389 104.142 18.2376C104.142 18.5363 104.179 18.8303 104.254 19.1196C104.328 19.3996 104.44 19.6516 104.59 19.8756C104.748 20.0996 104.944 20.2816 105.178 20.4216C105.42 20.5616 105.71 20.6316 106.046 20.6316ZM116.164 17.6356C116.146 17.3836 116.09 17.1409 115.996 16.9076C115.912 16.6743 115.791 16.4736 115.632 16.3056C115.483 16.1283 115.296 15.9883 115.072 15.8856C114.858 15.7736 114.615 15.7176 114.344 15.7176C114.064 15.7176 113.808 15.7689 113.574 15.8716C113.35 15.9649 113.154 16.1003 112.986 16.2776C112.828 16.4456 112.697 16.6463 112.594 16.8796C112.501 17.1129 112.45 17.3649 112.44 17.6356H116.164ZM112.44 18.6856C112.44 18.9656 112.478 19.2363 112.552 19.4976C112.636 19.7589 112.758 19.9876 112.916 20.1836C113.075 20.3796 113.276 20.5383 113.518 20.6596C113.761 20.7716 114.05 20.8276 114.386 20.8276C114.853 20.8276 115.226 20.7296 115.506 20.5336C115.796 20.3283 116.01 20.0249 116.15 19.6236H117.662C117.578 20.0156 117.434 20.3656 117.228 20.6736C117.023 20.9816 116.776 21.2429 116.486 21.4576C116.197 21.6629 115.87 21.8169 115.506 21.9196C115.152 22.0316 114.778 22.0876 114.386 22.0876C113.817 22.0876 113.313 21.9943 112.874 21.8076C112.436 21.6209 112.062 21.3596 111.754 21.0236C111.456 20.6876 111.227 20.2863 111.068 19.8196C110.919 19.3529 110.844 18.8396 110.844 18.2796C110.844 17.7663 110.924 17.2809 111.082 16.8236C111.25 16.3569 111.484 15.9509 111.782 15.6056C112.09 15.2509 112.459 14.9709 112.888 14.7656C113.318 14.5603 113.803 14.4576 114.344 14.4576C114.914 14.4576 115.422 14.5789 115.87 14.8216C116.328 15.0549 116.706 15.3676 117.004 15.7596C117.303 16.1516 117.518 16.6043 117.648 17.1176C117.788 17.6216 117.826 18.1443 117.76 18.6856H112.44Z" fill="white"/>
<path d="M32 18.9455C32 18.8475 32 18.7494 32 18.6514C32.0715 18.4602 32.1876 18.3181 32.3619 18.2201C35.279 16.5535 38.1917 14.882 41.1045 13.2154C43.5526 11.8136 46.0007 10.4068 48.4533 9C48.5426 9 48.6319 9 48.7213 9C49.0921 9.22548 49.1546 9.36272 49.0921 9.82838C49.0251 10.3431 48.9536 10.8577 48.8866 11.3675C48.6722 12.9704 48.4533 14.5683 48.2344 16.1712C48.0155 17.7789 47.801 19.3867 47.5821 20.9895C47.4392 22.0336 47.2962 23.0776 47.1577 24.1266C47.1354 24.3079 47.0594 24.4501 46.9254 24.553C46.7333 24.6952 46.5368 24.656 46.3357 24.5824C44.446 23.8717 42.5564 23.1658 40.6667 22.4551C40.1127 22.2443 39.5543 22.0385 38.978 21.8179C41.3814 18.6416 43.767 15.4849 46.157 12.3282C46.099 12.3233 46.0677 12.3478 46.0364 12.3724C43.012 15.2104 39.9876 18.0436 36.9677 20.8866C36.8694 20.9797 36.789 21.0091 36.6594 20.9601C35.288 20.4405 33.9165 19.9209 32.5406 19.4161C32.3038 19.3229 32.1072 19.2004 32 18.9455Z" fill="white"/>
<path d="M38.2454 22.7832C39.2238 23.1508 40.1753 23.5087 41.1358 23.8665C41.1045 23.9204 41.0822 23.9596 41.0599 23.9988C40.4568 24.9007 39.8581 25.8026 39.2461 26.6947C39.1612 26.8222 39.0138 26.93 38.8798 26.979C38.5805 27.0771 38.2767 26.8173 38.2544 26.4791C38.241 26.3026 38.2499 26.1261 38.2499 25.9497C38.2499 24.9743 38.2499 23.9939 38.2499 23.0185C38.2454 22.9499 38.2454 22.8812 38.2454 22.7832Z" fill="white"/>
</svg>
