<svg width="44" height="44" viewBox="0 0 44 44" fill="none" xmlns="http://www.w3.org/2000/svg">
<circle cx="22" cy="22" r="22" fill="#303030"/>
<path d="M17.8873 21.7254C16.7718 21.7254 15.6514 21.7254 14.5359 21.7254C14.1413 21.7254 14.0098 21.5949 14.0098 21.2081C14.0049 18.9794 14.0049 16.7459 14.0049 14.5173C14.0049 14.1354 14.1413 14 14.5164 14C16.7718 14 19.0223 14 21.2777 14C21.6479 14 21.7892 14.1354 21.7892 14.4979C21.7892 16.7411 21.7892 18.9843 21.7892 21.2274C21.7892 21.59 21.6479 21.7254 21.2777 21.7254C20.1476 21.7254 19.0174 21.7254 17.8873 21.7254Z" fill="white"/>
<path d="M23.2158 17.8627C23.2158 16.7556 23.2158 15.6437 23.2158 14.5366C23.2158 14.1257 23.3425 14 23.7614 14C25.9925 14 28.2186 14 30.4497 14C30.8784 14 31.0001 14.1209 31.0001 14.5511C31.0001 16.7556 31.0001 18.9649 31.0001 21.1694C31.0001 21.6045 30.8784 21.7254 30.4351 21.7254C28.2138 21.7254 25.9876 21.7254 23.7663 21.7254C23.3376 21.7254 23.2158 21.6045 23.2158 21.1743C23.2158 20.072 23.2158 18.9649 23.2158 17.8627Z" fill="white"/>
<path d="M14.0049 27.123C14.0049 26.016 14.0049 24.9041 14.0049 23.797C14.0049 23.4054 14.1364 23.27 14.5261 23.27C16.7718 23.27 19.0223 23.27 21.268 23.27C21.6577 23.27 21.7892 23.4005 21.7892 23.797C21.7892 26.0208 21.7892 28.2446 21.7892 30.4733C21.7892 30.8697 21.6577 31.0002 21.2485 31.0002C19.0126 31.0002 16.7766 31.0002 14.5407 31.0002C14.1267 31.0002 14 30.8746 14 30.454C14.0049 29.342 14.0049 28.235 14.0049 27.123Z" fill="white"/>
<path d="M26.7135 27.5239C26.3336 27.5239 25.978 27.5239 25.6273 27.5239C24.994 27.5239 24.3656 27.5239 23.7323 27.5239C23.6592 27.5239 23.5862 27.519 23.518 27.5045C23.3426 27.4659 23.2208 27.316 23.216 27.1419C23.2111 26.9631 23.3329 26.8035 23.518 26.7649C23.6105 26.7455 23.7128 26.7455 23.8054 26.7455C24.692 26.7455 25.5785 26.7455 26.4651 26.7455C26.5382 26.7455 26.6113 26.7455 26.7087 26.7455C26.7087 26.6633 26.7087 26.5908 26.7087 26.5231C26.7087 25.6239 26.7087 24.7247 26.7087 23.8304C26.7087 23.782 26.7087 23.7337 26.7087 23.6853C26.7233 23.4388 26.884 23.2744 27.1033 23.2744C27.3176 23.2792 27.4783 23.4388 27.4881 23.6757C27.4978 23.8884 27.493 24.0963 27.493 24.309C27.493 25.1115 27.493 25.914 27.493 26.7455C27.5709 26.7455 27.644 26.7455 27.7122 26.7455C28.6134 26.7455 29.5097 26.7455 30.4109 26.7455C30.4596 26.7455 30.5083 26.7455 30.557 26.7455C30.82 26.7552 30.9954 26.9099 30.9905 27.1371C30.9905 27.3595 30.8152 27.5239 30.5521 27.5239C29.6363 27.5287 28.7156 27.5239 27.7998 27.5239C27.7024 27.5239 27.6099 27.5239 27.493 27.5239C27.493 27.606 27.493 27.6737 27.493 27.7366C27.493 28.6164 27.493 29.4963 27.493 30.3762C27.493 30.4197 27.493 30.4584 27.493 30.5019C27.4881 30.8064 27.3468 30.9901 27.1033 30.995C26.8597 30.995 26.7087 30.8113 26.7087 30.5115C26.7087 29.593 26.7087 28.6793 26.7087 27.7608C26.7135 27.6882 26.7135 27.6157 26.7135 27.5239Z" fill="white"/>
</svg>
