<svg width="34" height="34" viewBox="0 0 34 34" fill="none" xmlns="http://www.w3.org/2000/svg">
<circle cx="17" cy="17" r="17" fill="#D1D0D0"/>
<path d="M24.5631 20.3914C24.4916 20.6792 24.3887 20.9481 24.1651 21.151C23.9906 21.3114 23.7894 21.4151 23.5344 21.4482C23.5344 21.3774 23.5344 21.3161 23.5344 21.2547C23.5344 19.2451 23.5344 17.2355 23.5344 15.2258C23.5344 14.3154 23.0112 13.6077 22.2016 13.419C22.054 13.386 21.902 13.3766 21.7499 13.3766C20.1577 13.3719 18.5655 13.3719 16.9733 13.3766C16.8749 13.3766 16.8078 13.3483 16.7452 13.2681C16.5036 12.9567 16.2532 12.6595 16.0161 12.3482C15.8283 12.1029 15.5957 11.9944 15.3005 11.9991C14.1153 12.0038 12.9301 11.9991 11.7449 11.9991C11.6868 11.9991 11.6331 11.9991 11.5615 11.9991C11.6018 11.6641 11.7449 11.4141 11.973 11.2113C12.2011 11.0084 12.4694 10.9282 12.7646 10.9282C14.1377 10.9282 15.5152 10.9282 16.8883 10.9282C17.0046 10.9282 17.0851 10.9754 17.1566 11.065C17.4518 11.4424 17.756 11.8151 18.0511 12.1925C18.1182 12.2821 18.1898 12.3057 18.2927 12.3057C19.9564 12.301 21.6202 12.3057 23.284 12.301C23.6284 12.301 23.937 12.3906 24.1964 12.6407C24.4066 12.8482 24.5094 13.1077 24.5721 13.3955C24.5631 15.7306 24.5631 18.061 24.5631 20.3914Z" fill="#564C4C"/>
<path d="M16.512 23.0713C14.7677 23.0713 13.0234 23.0713 11.2791 23.0713C10.8632 23.0713 10.5099 22.9392 10.246 22.5807C10.076 22.3542 10 22.0901 10 21.807C10 19.1369 10 16.4668 10.0045 13.7968C10.0045 13.0703 10.5143 12.5372 11.2031 12.5325C12.5851 12.5231 13.9716 12.5278 15.3536 12.5372C15.4386 12.5372 15.5459 12.6032 15.6041 12.6693C15.9082 13.0325 16.2034 13.4052 16.4941 13.7826C16.5656 13.877 16.6417 13.9147 16.758 13.9147C18.4307 13.91 20.1034 13.91 21.7761 13.91C22.286 13.91 22.684 14.1223 22.9032 14.6129C22.9837 14.7874 23.0239 14.995 23.0239 15.1884C23.0329 17.3868 23.0284 19.5851 23.0284 21.7881C23.0284 22.5052 22.5186 23.0807 21.7582 23.0713C20.0095 23.0666 18.2607 23.0713 16.512 23.0713Z" fill="#564C4C"/>
</svg>
