<svg width="34" height="34" viewBox="0 0 34 34" fill="none" xmlns="http://www.w3.org/2000/svg">
<circle cx="17" cy="17" r="17" fill="#D1D0D0"/>
<g clip-path="url(#clip0_1098_2432)">
<path d="M14.4617 9C14.5802 9 14.6986 9 14.8171 9C14.8368 9.00832 14.8526 9.02079 14.8723 9.02495C16.7281 9.39085 18.5838 9.75675 20.4396 10.1227C21.6439 10.3597 22.8481 10.5967 24.0484 10.8378C24.7039 10.9667 25.0869 11.5447 24.9842 12.2391C24.925 12.6258 24.85 13.0124 24.7789 13.3991C24.2735 16.239 23.772 19.0831 23.2627 21.923C23.1403 22.6132 22.548 23.0331 21.8966 22.9001C21.8215 22.8835 21.7426 22.871 21.6557 22.8585C21.6557 23.1329 21.6557 23.3907 21.6557 23.6485C21.6518 24.4427 21.1819 24.9375 20.4277 24.9375C17.3638 24.9375 14.2998 24.9375 11.2359 24.9375C10.4738 24.9333 10 24.4385 10 23.6402C10 20.4136 10 17.187 10 13.9605C10 13.1663 10.4699 12.6673 11.224 12.6632C11.7847 12.6632 12.3454 12.659 12.91 12.6632C13.0126 12.6632 13.064 12.6465 13.0837 12.5218C13.2219 11.7027 13.3759 10.8836 13.518 10.0603C13.597 9.60291 13.8181 9.26611 14.2327 9.08732C14.3038 9.05405 14.3827 9.02911 14.4617 9ZM14.0945 17.0873C14.1261 17.133 14.1498 17.187 14.1853 17.2286C14.7736 17.8482 15.3619 18.4677 15.9463 19.0914C16.0253 19.1787 16.0805 19.1912 16.1793 19.1247C16.5662 18.8669 16.9571 18.6215 17.3519 18.3679C18.5325 19.5363 19.7091 20.6922 20.9055 21.8772C20.9095 21.7982 20.9134 21.7608 20.9134 21.7192C20.9134 19.2619 20.9134 16.8045 20.9134 14.343C20.9134 13.7817 20.5857 13.4449 20.0526 13.4449C17.2572 13.4449 14.4578 13.4449 11.6623 13.4449C11.07 13.4449 10.7305 13.8066 10.7305 14.4303C10.7305 16.0311 10.7305 17.6361 10.7305 19.2369C10.7305 19.2868 10.7305 19.3367 10.7305 19.4157C11.8597 18.634 12.9613 17.8731 14.0945 17.0873ZM13.8023 12.6632C13.8852 12.6632 13.9405 12.6632 13.9997 12.6632C16.1319 12.6632 18.264 12.6632 20.3962 12.6673C20.5501 12.6673 20.712 12.6798 20.8621 12.7255C21.3635 12.8835 21.6518 13.3368 21.6518 13.9397C21.6518 15.3243 21.6518 16.7089 21.6557 18.0935C21.6557 18.185 21.6873 18.2889 21.7386 18.3596C22.0742 18.8544 22.4177 19.3409 22.7573 19.8274C22.7849 19.8648 22.8165 19.9022 22.856 19.9521C22.8679 19.9022 22.8758 19.8773 22.8797 19.8523C23.0929 18.6548 23.3061 17.4615 23.5193 16.264C23.7444 15.0083 23.9695 13.7484 24.1866 12.4885C24.2656 12.0228 23.9932 11.6154 23.5549 11.5197C23.3417 11.474 23.1285 11.4324 22.9192 11.3908C21.099 11.0374 19.2788 10.6798 17.4546 10.3181C16.7044 10.1684 15.9581 10.0187 15.208 9.87317C14.667 9.76922 14.2643 10.0769 14.1616 10.6507C14.13 10.8378 14.0945 11.0291 14.059 11.2162C13.976 11.6944 13.8931 12.1684 13.8023 12.6632Z" fill="#564C4C"/>
<path d="M17.1743 15.7153C17.1783 14.9336 17.7784 14.3015 18.5207 14.2974C19.2709 14.2932 19.879 14.9419 19.8711 15.736C19.8671 16.5136 19.2591 17.1498 18.5207 17.1456C17.7745 17.1456 17.1743 16.5053 17.1743 15.7153Z" fill="#564C4C"/>
</g>
<defs>
<clipPath id="clip0_1098_2432">
<rect width="15" height="15.9375" fill="white" transform="translate(10 9)"/>
</clipPath>
</defs>
</svg>
