<svg width="16" height="18" viewBox="0 0 16 18" fill="none" xmlns="http://www.w3.org/2000/svg">
<path d="M12.2415 16.6655L12.2388 16.6643C11.2839 16.249 10.7694 15.2486 10.9845 14.1927L10.9872 14.1791L10.9895 14.1653C10.9956 14.1288 11.0011 14.0886 11.0061 14.0378L11.0502 13.5931L11.0906 13.6162L11.4964 13.1894C11.8075 12.8622 12.1526 12.6538 12.5541 12.5473C13.9091 12.1931 15.2513 13.2295 15.2461 14.667L15.2461 14.668C15.2436 15.759 14.4602 16.6621 13.3943 16.8186C13.3424 16.8253 13.2966 16.836 13.2595 16.8466C13.1359 16.8493 13.0125 16.8498 12.8834 16.85C12.7905 16.8252 12.7121 16.806 12.643 16.789C12.4813 16.7493 12.3703 16.7221 12.2415 16.6655ZM4.80513 10.0054L5.16971 10.2147C5.08813 10.195 4.99493 10.1839 4.89244 10.1911C4.60918 10.2109 4.4141 10.3571 4.31024 10.4504C3.63225 11.0518 2.6435 11.1499 1.85244 10.6937L1.85222 10.6936C1.04728 10.2297 0.621059 9.30909 0.784742 8.41773L0.784849 8.41714C0.954856 7.48719 1.67347 6.7829 2.56555 6.64409C3.24107 6.54022 3.81416 6.70625 4.33031 7.15623C4.39444 7.21242 4.55473 7.3472 4.79576 7.39242C4.9298 7.41757 5.05175 7.40922 5.15732 7.38512L4.81223 7.58341L4.97353 8.14756C5.09643 8.57738 5.10089 8.99728 4.97155 9.43815L4.80513 10.0054ZM11.0829 3.98009L10.9403 4.06197L11.0849 3.9578L10.9924 3.48594C10.7093 2.04277 11.6081 1.10078 12.4575 0.842794C13.4565 0.541298 14.5309 0.993388 15.0106 1.93292L15.011 1.93371C15.4884 2.86568 15.2317 4.0173 14.4076 4.66109L14.4075 4.66118C13.6034 5.28964 12.3677 5.31014 11.489 4.40048L11.0829 3.98009ZM0.0476585 8.28238L0.0476635 8.28238L0.0476585 8.28238Z" stroke="white" strokeWidth="1.5"/>
<rect x="4.48975" y="6.96338" width="7.42338" height="1.4214" transform="rotate(-30 4.48975 6.96338)" fill="white"/>
<rect x="4.67627" y="9.06006" width="7.84634" height="1.47394" transform="rotate(30 4.67627 9.06006)" fill="white"/>
</svg>
