<svg width="20" height="20" viewBox="0 0 20 20" fill="none" xmlns="http://www.w3.org/2000/svg">
<path d="M0 9.99722C0 4.5032 4.5032 0 9.99722 0C15.4968 0 20.0056 4.50877 20 10.0139C19.9944 15.5079 15.4857 20.0056 9.99165 20C4.49763 19.9944 0 15.4912 0 9.99722ZM1.33593 9.99722C1.33036 14.7565 5.23796 18.6696 10.0028 18.6696C14.762 18.6696 18.6585 14.7787 18.6696 10.0195C18.6808 5.26023 14.7787 1.34706 10.0139 1.33593C5.24909 1.3248 1.33593 5.22683 1.33593 9.99722Z" fill="#858585"/>
<path d="M9.99138 16.0088C6.9243 15.9921 4.3248 13.632 4.03535 10.5816C4.01865 10.3979 4.00195 10.2087 4.00195 10.0194C4.00195 9.62976 4.2914 9.33475 4.65879 9.32918C5.02617 9.32361 5.32675 9.61863 5.33232 10.0083C5.34902 11.0882 5.66073 12.0678 6.35653 12.8917C7.64793 14.428 9.29001 14.9791 11.2438 14.4892C12.9972 14.0495 14.3665 12.4686 14.617 10.6762C14.6449 10.4759 14.656 10.2755 14.6616 10.0751C14.6727 9.62976 14.9455 9.32918 15.3351 9.33474C15.7247 9.34031 15.9975 9.64646 15.9975 10.0862C15.9752 12.7859 14.0604 15.185 11.4108 15.8307C11.1937 15.8808 10.9766 15.9253 10.754 15.9532C10.5035 15.981 10.2474 15.9921 9.99138 16.0088Z" fill="#858585"/>
<path d="M7.34743 4.66458C8.42175 4.67014 9.31793 5.5552 9.33463 6.61837C9.3402 7.00802 9.06745 7.31417 8.70006 7.33087C8.33268 7.34757 8.0321 7.06925 8.00427 6.67961C7.97644 6.27326 7.70368 6.00051 7.3363 6.00051C6.96892 6.00051 6.70174 6.27326 6.66834 6.68517C6.64051 7.06925 6.33435 7.35314 5.96697 7.33087C5.61072 7.31417 5.33241 7.01359 5.33797 6.63507C5.33797 5.56076 6.25642 4.65901 7.34743 4.66458Z" fill="#858585"/>
<path d="M12.6746 4.66455C13.7378 4.67012 14.634 5.53847 14.6618 6.59052C14.673 6.99686 14.4058 7.30858 14.0328 7.33085C13.6543 7.35311 13.3593 7.06923 13.3315 6.66288C13.3036 6.27323 13.0309 6.00048 12.6691 6.00048C12.3073 6.00048 12.0289 6.27323 12.0011 6.65731C11.9733 7.06366 11.6783 7.34754 11.3053 7.33085C10.9324 7.31415 10.6596 7.00243 10.6707 6.59608C10.693 5.53847 11.6003 4.66455 12.6746 4.66455Z" fill="#858585"/>
</svg>
